<?xml version="1.0" standalone="no"?>
<!DOCTYPE svg PUBLIC "-//W3C//DTD SVG 20010904//EN"
 "http://www.w3.org/TR/2001/REC-SVG-20010904/DTD/svg10.dtd">
<svg version="1.0" xmlns="http://www.w3.org/2000/svg"
 width="128.000000pt" height="128.000000pt" viewBox="0 0 128.000000 128.000000"
 preserveAspectRatio="xMidYMid meet">
<metadata>
Created by potrace 1.11, written by Peter Selinger 2001-2013
</metadata>
<g transform="translate(0.000000,128.000000) scale(0.100000,-0.100000)"
fill="#000000" stroke="none">
<path d="M769 1074 c-71 -13 -162 -48 -179 -69 -9 -10 -21 -9 -63 7 -73 29
-192 28 -268 -1 -277 -106 -349 -462 -133 -661 105 -97 259 -130 396 -84 l49
16 72 -35 c92 -45 170 -57 266 -41 97 16 174 56 241 123 172 173 174 445 5
617 -104 107 -246 154 -386 128z m188 -90 c98 -34 167 -97 214 -199 128 -275
-140 -583 -431 -495 -266 80 -353 403 -162 603 97 102 243 137 379 91z"/>
<path d="M814 719 c-70 -19 -77 -120 -12 -152 31 -15 44 -14 85 5 49 24 46
113 -4 138 -37 19 -34 18 -69 9z"/>
</g>
</svg>
