<svg version="1" xmlns="http://www.w3.org/2000/svg" x="0" y="0" viewBox="0 0 308 213" preserveAspectRatio="xMinYMin"><path fill="#FFFFFF" d="M97 106c0-34 17-65 42-84C126 15 111 11 95 11 43 11 0 54 0 106s43 95 95 95c16 0 31-4 44-11C114 171 97 140 97 106z"/><circle id="iris" fill="#259CF7" cx="202" cy="106" r="105"/><path fill="#FFFFFF" d="M202 212c-58 0-106-48-106-106S144 0 202 0s106 48 106 106S260 212 202 212zM202 18c-49 0-88 40-88 88s40 88 88 88 88-40 88-88S251 18 202 18z"/><circle fill="#FFFFFF" cx="202" cy="106" r="20"/></svg>