<svg version="1.1" xmlns="http://www.w3.org/2000/svg" x="0" y="0" width="180" height="122" viewBox="0 0 180 122" enable-background="new 0 0 180 122" xml:space="preserve"><path fill="#FFFFFF" d="M62.8 61c0-19.5 9.9-36.6 24.9-46.8 -9-6-19.8-9.6-31.4-9.6C25.2 4.7 0 29.9 0 61s25.2 56.3 56.3 56.3c11.6 0 22.4-3.5 31.4-9.6C72.7 97.6 62.8 80.5 62.8 61z"/><circle id="iris" cx="120" cy="62" r="12" fill="#3a6ce0" /><path fill="#FFFFFF" d="M129.7 61c0 5.9-4.8 10.6-10.6 10.6 -5.9 0-10.6-4.8-10.6-10.6 0-5.9 4.8-10.6 10.6-10.6C124.9 50.4 129.7 55.2 129.7 61zM119.1 121.9c-33.6 0-60.9-27.3-60.9-60.9s27.3-60.9 60.9-60.9C152.7 0.1 180 27.4 180 61S152.7 121.9 119.1 121.9zM119.1 9.3C90.6 9.3 67.4 32.5 67.4 61s23.2 51.7 51.7 51.7c28.5 0 51.7-23.2 51.7-51.7S147.6 9.3 119.1 9.3z"/></svg>