<svg version="1.1" xmlns="http://www.w3.org/2000/svg" x="0" y="0" width="224" height="32" viewBox="0 0 224 32" enable-background="new 0 0 224 32" xml:space="preserve"><g class="icon-set" fill="#FFFFFF"><circle cx="15.8" cy="16" r="2.8"/><circle cx="15.8" cy="8.8" r="2.8"/><circle cx="15.8" cy="23.2" r="2.8"/><path d="M59 8.4c-0.4 0.2-1.5 0.7-2.6 0.8 0.7-0.4 1.7-1.7 2-2.8 -0.7 0.5-2.2 1.1-3 1.1 0 0 0 0 0 0C54.5 6.6 53.3 6 52 6c-2.6 0-4.7 2.3-4.7 5.1 0 0.4 0 0.8 0.1 1.1h0c-3.6-0.1-7.7-2-10-5.3 -1.4 2.7-0.2 5.6 1.4 6.7 -0.6 0-1.6-0.1-2.1-0.6 0 1.8 0.8 4.1 3.7 5 -0.6 0.3-1.5 0.2-2 0.2 0.2 1.5 2.1 3.5 4.2 3.5 -0.8 0.9-3.4 2.7-6.6 2.1C38.2 25.2 40.7 26 43.4 26c7.7 0 13.6-6.6 13.3-14.8 0 0 0 0 0 0 0 0 0 0 0-0.1 0 0 0 0 0-0.1C57.4 10.5 58.3 9.6 59 8.4zM84 12.9h-3.3v-2.5c0-0.8 0.8-1 1.1-1 0.3 0 2.1 0 2.1 0v-3.4L81.5 6c-3.3 0-4.1 2.6-4.1 4.2v2.7H75v3.5h2.4c0 4.5 0 9.5 0 9.5h3.3c0 0 0-5 0-9.5h2.8L84 12.9z"/><path d="M112.8 9.3c-0.9 0.9-1.7 1.7-2.5 2.6 -0.3-0.3-0.7-0.5-1.1-0.7 -2.6-1.3-5.7-0.3-7 2.3 -0.3 0.6-0.5 1.1-0.5 1.8 -0.4 2.9 1.5 5.5 4.4 6 1.4 0.3 2.8-0.1 3.9-0.9 0.8-0.6 1.4-1.5 1.6-2.4V17.7h-4.7v-3.6h8.4c0.2 0.8 0.2 1.6 0.2 2.3 0 1.7-0.5 3.3-1.3 4.7 -1.1 1.9-3 3.2-5.2 3.6 -2.3 0.6-4.7 0.2-6.7-1.1 -2.2-1.3-3.7-3.5-4.1-6 -0.7-3.2 0.5-6.4 2.9-8.5 1.3-1.2 2.9-1.9 4.6-2.1C108.3 6.7 110.9 7.5 112.8 9.3L112.8 9.3 112.8 9.3zM120.6 16.6h-3.1v-2.3h3.1v-3.2h2.2v3.2H126v2.3h-3.1v3.2h-2.2V16.6z"/><g transform="matrix(1.5537946,0,0,1.5537946,-140.87332,-132.64552)"><rect x="176.4" y="93.4" width="2.9" height="8.7"/><path d="M177.9 89.2c-1 0-1.6 0.6-1.6 1.5 0 0.8 0.6 1.5 1.6 1.5h0c1 0 1.6-0.7 1.6-1.5C179.5 89.9 178.9 89.2 177.9 89.2L177.9 89.2zM186.4 93.2c-1.5 0-2.2 0.8-2.6 1.4v-1.2h-2.9c0 0.8 0 8.7 0 8.7h2.9v-4.8c0-0.3 0-0.5 0.1-0.7 0.2-0.5 0.7-1.1 1.5-1.1 1 0 1.5 0.8 1.5 2v4.6h2.9v-5C189.8 94.5 188.3 93.2 186.4 93.2z"/></g><polygon fill="none" stroke="#FFFFFF" stroke-width="1.8" points="163 8 163 25 189 25 189 8 163 8 "/><path fill="none" stroke="#FFFFFF" stroke-width="0.9" d="M188.7 24.4c0.1-0.1-10.7-7.7-10.7-7.7l-2.3 1.8 -1.9-1.6 -10.6 7.8M188.5 8.8c0.2 0.1-12.7 9.6-12.7 9.6l-12.5-9.6"/></g><path fill="#31393C" clip-rule="evenodd" d="m208 1c-7.043 0-12.753 5.71-12.753 12.754 0 5.634 3.653 10.414 8.722 12.101.638.116.87-.276.87-.615 0-.303-.011-1.104-.017-2.169-3.548.771-4.296-1.709-4.296-1.709-.58-1.474-1.416-1.865-1.416-1.865-1.158-.792.088-.775.088-.775 1.279.09 1.953 1.313 1.953 1.313 1.137 1.949 2.984 1.387 3.711 1.061.116-.824.446-1.387.811-1.706-2.833-.321-5.81-1.415-5.81-6.302 0-1.392.497-2.53 1.312-3.422-.131-.323-.568-1.62.125-3.375 0 0 1.07-.343 3.508 1.307 1.017-.283 2.107-.425 3.192-.43 1.083.004 2.174.146 3.192.43 2.435-1.65 3.504-1.307 3.504-1.307.695 1.755.258 3.052.127 3.375.817.892 1.31 2.03 1.31 3.422 0 4.899-2.981 5.977-5.822 6.293.459.394.866 1.171.866 2.361 0 1.705-.016 3.08-.016 3.498 0 .342.23.738.878.613 5.062-1.689 8.713-6.466 8.713-12.099.001-7.044-5.709-12.754-12.752-12.754z" fill-rule="evenodd"/></svg>
